<svg width="48" height="48" viewBox="0 0 48 48" fill="none" xmlns="http://www.w3.org/2000/svg">
<path d="M32.0694 7.34925C32.3021 7.62084 32.3721 7.9961 32.2529 8.33335L29.541 16H31C38.0771 16 43.8334 21.6552 43.9964 28.6931L44 29V42H38V29C38 25.2145 34.9952 22.1309 31.2407 22.0041L31 22H29.578L32.2529 29.5629C32.437 30.0836 32.1641 30.6549 31.6434 30.839C31.3062 30.9583 30.9309 30.8883 30.6593 30.6555L17 18.9481L30.6593 7.24075C31.0786 6.88133 31.7099 6.92991 32.0694 7.34925ZM8 14C10.7614 14 13 16.2386 13 19C13 21.7614 10.7614 24 8 24C5.23858 24 3 21.7614 3 19C3 16.2386 5.23858 14 8 14Z" fill="#2A5DFF"/>
</svg>
