<svg width="48" height="48" viewBox="0 0 48 48" fill="none" xmlns="http://www.w3.org/2000/svg">
<path d="M17.2404 7.16503L17.3407 7.24074L31 18.9481L17.3407 30.6555C17.0691 30.8883 16.6938 30.9583 16.3566 30.839C15.8731 30.6681 15.6033 30.1632 15.7146 29.6751L15.7471 29.5629L18.42 22H17C13.134 22 10 25.134 10 29V42H4V29C4 21.8203 9.8203 16 17 16H18.457L15.7471 8.33335C15.6428 8.03826 15.6833 7.71406 15.851 7.45568L15.9306 7.34925C16.2624 6.96217 16.8258 6.891 17.2404 7.16503ZM40 14C42.7614 14 45 16.2386 45 19C45 21.7614 42.7614 24 40 24C37.2386 24 35 21.7614 35 19C35 16.2386 37.2386 14 40 14Z" fill="#2A5DFF"/>
</svg>
