<svg width="48" height="48" viewBox="0 0 48 48" fill="none" xmlns="http://www.w3.org/2000/svg">
<path d="M23.9481 17L35.6555 30.6593C35.8883 30.9309 35.9583 31.3062 35.839 31.6434C35.6681 32.1269 35.1632 32.3967 34.6751 32.2854L34.5629 32.2529L27 29.579V45H21V29.542L13.3334 32.2529C13.0383 32.3572 12.7141 32.3167 12.4557 32.149L12.3492 32.0694C11.9622 31.7376 11.891 31.1742 12.165 30.7596L12.2407 30.6593L23.9481 17ZM24 4C26.7614 4 29 6.23858 29 9C29 11.7614 26.7614 14 24 14C21.2386 14 19 11.7614 19 9C19 6.23858 21.2386 4 24 4Z" fill="#2A5DFF"/>
</svg>
