<svg width="48" height="48" viewBox="0 0 48 48" fill="none" xmlns="http://www.w3.org/2000/svg">
<path d="M23.9481 3L35.6555 16.6593C35.8883 16.9309 35.9583 17.3062 35.839 17.6434C35.6681 18.1269 35.1632 18.3967 34.6751 18.2854L34.5629 18.2529L27 15.578V32.421L34.5629 29.7471C35.0836 29.563 35.6549 29.8359 35.839 30.3566C35.9583 30.6938 35.8883 31.0691 35.6555 31.3407L23.9481 45L12.2407 31.3407C11.8813 30.9214 11.9299 30.2901 12.3492 29.9306C12.6208 29.6979 12.9961 29.6279 13.3334 29.7471L21 32.458V15.541L13.3334 18.2529C13.0383 18.3572 12.7141 18.3167 12.4557 18.149L12.3492 18.0694C11.9622 17.7376 11.891 17.1742 12.165 16.7596L12.2407 16.6593L23.9481 3Z" fill="#2A5DFF"/>
</svg>
