<svg width="48" height="48" viewBox="0 0 48 48" fill="none" xmlns="http://www.w3.org/2000/svg">
<path d="M35.3481 6.57854L33.9679 24.5155C33.9404 24.8722 33.7246 25.187 33.4018 25.3411C32.939 25.5622 32.3912 25.396 32.1248 24.9721L32.0685 24.8697L28.611 17.6305L22.0503 24.1924C20.7375 25.5051 20 27.2856 20 29.1421V42H14V29.1421C14 25.6943 15.3696 22.3877 17.8076 19.9497L24.394 13.3625L17.0569 9.85819C16.77 9.72116 16.5675 9.45717 16.5068 9.14971L16.4908 9.03254C16.4515 8.52122 16.8039 8.07017 17.2954 7.97442L17.4111 7.95877L35.3481 6.57854Z" fill="#2A5DFF"/>
</svg>
