<svg width="48" height="48" viewBox="0 0 48 48" fill="none" xmlns="http://www.w3.org/2000/svg">
<path d="M33 36C35.7614 36 38 38.2386 38 41C38 43.7614 35.7614 46 33 46C30.2386 46 28 43.7614 28 41C28 38.2386 30.2386 36 33 36ZM22.0694 3.34925C22.3021 3.62084 22.3721 3.9961 22.2529 4.33335L19.541 12H23C30.0771 12 35.8334 17.6552 35.9964 24.6931L36 25V32H30V25C30 21.2145 26.9952 18.1309 23.2407 18.0041L23 18H19.578L22.2529 25.5629C22.437 26.0836 22.1641 26.6549 21.6434 26.839C21.3062 26.9583 20.9309 26.8883 20.6593 26.6555L7 14.9481L20.6593 3.24075C21.0786 2.88133 21.7099 2.92991 22.0694 3.34925Z" fill="#2A5DFF"/>
</svg>
