<svg width="48" height="48" viewBox="0 0 48 48" fill="none" xmlns="http://www.w3.org/2000/svg">
<path d="M24 36C26.7614 36 29 38.2386 29 41C29 43.7614 26.7614 46 24 46C21.2386 46 19 43.7614 19 41C19 38.2386 21.2386 36 24 36ZM23.9481 4L35.6555 17.6593C35.8883 17.9309 35.9583 18.3062 35.839 18.6434C35.6681 19.1269 35.1632 19.3967 34.6751 19.2854L34.5629 19.2529L27 16.579V32H21V16.542L13.3334 19.2529C13.0383 19.3572 12.7141 19.3167 12.4557 19.149L12.3492 19.0694C11.9622 18.7376 11.891 18.1742 12.165 17.7596L12.2407 17.6593L23.9481 4Z" fill="#2A5DFF"/>
</svg>
