<svg width="48" height="48" viewBox="0 0 48 48" fill="none" xmlns="http://www.w3.org/2000/svg">
<path d="M15 36C17.7614 36 20 38.2386 20 41C20 43.7614 17.7614 46 15 46C12.2386 46 10 43.7614 10 41C10 38.2386 12.2386 36 15 36ZM27.2404 3.16503L27.3407 3.24075L41 14.9481L27.3407 26.6555C27.0691 26.8883 26.6938 26.9583 26.3566 26.839C25.8731 26.6681 25.6033 26.1632 25.7146 25.6751L25.7471 25.5629L28.42 18H25C21.134 18 18 21.134 18 25V32H12V25C12 17.8203 17.8203 12 25 12H28.457L25.7471 4.33335C25.6428 4.03826 25.6833 3.71406 25.851 3.45568L25.9306 3.34925C26.2348 2.99442 26.7335 2.90506 27.1339 3.1037L27.2404 3.16503Z" fill="#2A5DFF"/>
</svg>
