<svg width="48" height="48" viewBox="0 0 48 48" fill="none" xmlns="http://www.w3.org/2000/svg">
<path opacity="0.3" d="M41 16H13V22H41V16Z" fill="#2A5DFF"/>
<path d="M20.2529 29.5629C20.437 30.0836 20.1641 30.6549 19.6434 30.839C19.3062 30.9583 18.9309 30.8883 18.6593 30.6555L5 18.9481L18.6593 7.24075C19.0786 6.88133 19.7099 6.92991 20.0694 7.34925C20.3021 7.62084 20.3721 7.9961 20.2529 8.33335L17.542 15.999L21 16C25.3349 16 28.8645 19.4478 28.9962 23.7508L29 24V42H23V24C23 22.9456 22.1841 22.0818 21.1493 22.0055L21 22L17.579 21.999L20.2529 29.5629Z" fill="#2A5DFF"/>
</svg>
