<svg width="48" height="48" viewBox="0 0 48 48" fill="none" xmlns="http://www.w3.org/2000/svg">
<path opacity="0.3" d="M20 41V13H14V41H20Z" fill="#2A5DFF"/>
<path d="M37.7579 7.24215L36.3776 25.1791C36.3353 25.7298 35.8545 26.1418 35.3039 26.0994C34.9472 26.072 34.6324 25.8561 34.4782 25.5334L30.997 18.2441L20.5858 28.6569C20.2524 28.9903 20.0489 29.4292 20.0077 29.8952L20 30.0711V41H14V30.0711C14 28.0504 14.7645 26.1085 16.1333 24.6321L16.3431 24.4142L26.755 14.0021L19.4666 10.5218C18.9683 10.2838 18.7572 9.68682 18.9952 9.18846C19.1494 8.86567 19.4642 8.64981 19.8209 8.62237L37.7579 7.24215Z" fill="#2A5DFF"/>
</svg>
