<svg width="48" height="48" viewBox="0 0 48 48" fill="none" xmlns="http://www.w3.org/2000/svg">
<path opacity="0.3" d="M28 41V13H34V41H28Z" fill="#2A5DFF"/>
<path d="M10.2422 7.24215L28.1791 8.62237C28.5358 8.64981 28.8506 8.86567 29.0048 9.18846C29.2258 9.65123 29.0596 10.199 28.6357 10.4655L28.5334 10.5218L21.2442 14.0021L31.6569 24.4142C33.1572 25.9145 34 27.9493 34 30.0711V41H28V30.0711C28 29.5406 27.7893 29.0319 27.4142 28.6569L17.0022 18.2441L13.5218 25.5334C13.3848 25.8203 13.1208 26.0227 12.8133 26.0834L12.6962 26.0994C12.1848 26.1388 11.7338 25.7863 11.638 25.2949L11.6224 25.1791L10.2422 7.24215Z" fill="#2A5DFF"/>
</svg>
