<svg width="48" height="48" viewBox="0 0 48 48" fill="none" xmlns="http://www.w3.org/2000/svg">
<path d="M27 42H21L20.999 30.116L20.9932 29.8335C20.9208 28.1918 20.2728 26.6275 19.1632 25.4154L18.9497 25.1924L9.664 15.907L7.43448 20.5774C7.2578 20.9474 6.81468 21.104 6.44475 20.9274C6.20514 20.8129 6.04491 20.5792 6.02454 20.3145L5 7L18.3146 8.02453C18.7234 8.05598 19.0292 8.41283 18.9978 8.82158C18.9774 9.08633 18.8172 9.32002 18.5776 9.43446L13.907 11.664L23.1924 20.9497C23.4767 21.234 23.7464 21.5301 24.0012 21.8369C24.2536 21.5301 24.5233 21.234 24.8076 20.9497L34.092 11.664L29.4224 9.43446C29.1828 9.32002 29.0226 9.08633 29.0022 8.82158C28.9734 8.4469 29.228 8.11582 29.5855 8.03901L29.6854 8.02453L43 7L41.9755 20.3145C41.9551 20.5792 41.7949 20.8129 41.5553 20.9274C41.2161 21.0893 40.8155 20.9712 40.615 20.6654L40.5655 20.5774L38.335 15.907L29.0503 25.1924C27.8162 26.4264 27.0905 28.0737 27.0079 29.809L27 30.1421V42Z" fill="#2A5DFF"/>
</svg>
