<svg width="48" height="48" viewBox="0 0 48 48" fill="none" xmlns="http://www.w3.org/2000/svg">
<path opacity="0.3" d="M34 42V33.2843C34 28.7756 35.7911 24.4516 38.9792 21.2635L43.1213 17.1213L38.8787 12.8787L34.7365 17.0208C30.4232 21.3342 28 27.1843 28 33.2843V42H34Z" fill="#2A5DFF"/>
<path d="M20.2529 29.5629C20.437 30.0836 20.1641 30.6549 19.6434 30.839C19.3062 30.9583 18.9309 30.8883 18.6593 30.6555L5 18.9481L18.6593 7.24075C19.0786 6.88133 19.7099 6.92991 20.0694 7.34925C20.3021 7.62084 20.3721 7.9961 20.2529 8.33335L17.541 16H21C28.0771 16 33.8334 21.6552 33.9964 28.6931L34 29V42H28V29C28 25.2145 24.9952 22.1309 21.2407 22.0041L21 22H17.578L20.2529 29.5629Z" fill="#2A5DFF"/>
</svg>
