<svg width="48" height="48" viewBox="0 0 48 48" fill="none" xmlns="http://www.w3.org/2000/svg">
<path opacity="0.3" d="M14.1213 42.1213V33.4056C14.1213 28.8969 12.3303 24.5729 9.14214 21.3848L5 17.2426L9.24264 13L13.3848 17.1421C17.6981 21.4555 20.1213 27.3056 20.1213 33.4056V42.1213H14.1213Z" fill="#2A5DFF"/>
<path d="M27.851 7.45568L27.9306 7.34925C28.2624 6.96217 28.8258 6.891 29.2404 7.16503L29.3407 7.24074L43 18.9481L29.3407 30.6555C29.0691 30.8883 28.6938 30.9583 28.3566 30.839C27.8731 30.6681 27.6033 30.1632 27.7146 29.6751L27.7471 29.5629L30.421 21.999L27 22C23.134 22 20 25.134 20 29V42H14V29C14 21.8203 19.8203 16 27 16L30.457 15.999L27.7471 8.33335C27.6428 8.03826 27.6833 7.71406 27.851 7.45568L27.9306 7.34925L27.851 7.45568Z" fill="#2A5DFF"/>
</svg>
