<svg width="48" height="48" viewBox="0 0 48 48" fill="none" xmlns="http://www.w3.org/2000/svg">
<path opacity="0.3" d="M41.2174 29.1173L41.6 29.0142L42.3956 28.808L40.8898 23L40.0942 23.2063C33.2616 24.9777 27.5532 29.3478 23.9998 35.2437C20.4467 29.3478 14.7384 24.9777 7.90576 23.2063L7.11014 23L5.60437 28.808L6.39999 29.0142C13.3124 30.8064 18.8236 36.0171 21 42.8183H27C29.1361 36.143 34.4846 30.9999 41.2174 29.1173Z" fill="#2A5DFF"/>
<path d="M23.9481 4L35.6555 17.6593C35.8883 17.9309 35.9583 18.3062 35.839 18.6434C35.6681 19.1269 35.1632 19.3967 34.6751 19.2854L34.5629 19.2529L27 16.578V43H21V16.541L13.3334 19.2529C13.0383 19.3572 12.7141 19.3167 12.4557 19.149L12.3492 19.0694C11.9622 18.7376 11.891 18.1742 12.165 17.7596L12.2407 17.6593L23.9481 4Z" fill="#2A5DFF"/>
</svg>
