<svg width="48" height="48" viewBox="0 0 48 48" fill="none" xmlns="http://www.w3.org/2000/svg">
<path opacity="0.3" d="M26 42V29.1421C26 25.6943 24.6304 22.3877 22.1924 19.9497L14.5147 12.2721L10.2721 16.5147L17.9498 24.1924C19.2625 25.5051 20 27.2856 20 29.1421V42H26Z" fill="#2A5DFF"/>
<path d="M41.3481 6.57854L23.4111 7.95877C22.8605 8.00114 22.4484 8.48188 22.4908 9.03254C22.5183 9.38919 22.7341 9.70403 23.0569 9.85819L30.3951 13.3625L23.8076 19.9497C21.4567 22.3007 20.0992 25.4592 20.0052 28.7733L20 29.1421V42H26V29.1421C26 27.3888 26.6578 25.7032 27.8368 24.4154L28.0503 24.1924L34.6121 17.6305L38.0685 24.8697C38.3065 25.3681 38.9034 25.5792 39.4018 25.3411C39.7246 25.187 39.9404 24.8722 39.9679 24.5155L41.3481 6.57854Z" fill="#2A5DFF"/>
</svg>
