<svg width="48" height="48" viewBox="0 0 48 48" fill="none" xmlns="http://www.w3.org/2000/svg">
<path opacity="0.3" d="M22 42V29.1421C22 25.6943 23.3696 22.3877 25.8076 19.9497L33.4853 12.2721L37.7279 16.5147L30.0503 24.1924C28.7375 25.5051 28 27.2856 28 29.1421V42H22Z" fill="black"/>
<path d="M6.65192 6.57854L24.5889 7.95876C25.1395 8.00113 25.5516 8.48187 25.5092 9.03253C25.4818 9.38919 25.2659 9.70402 24.9431 9.85818L17.6049 13.3625L24.1924 19.9497C26.5433 22.3006 27.9008 25.4592 27.9948 28.7733L28 29.1421V42H22V29.1421C22 27.3888 21.3422 25.7032 20.1632 24.4154L19.9498 24.1924L13.3879 17.6305L9.93156 24.8697C9.69354 25.3681 9.09659 25.5792 8.59823 25.3411C8.27544 25.187 8.05958 24.8722 8.03214 24.5155L6.65192 6.57854Z" fill="black"/>
</svg>
