<svg width="48" height="48" viewBox="0 0 48 48" fill="none" xmlns="http://www.w3.org/2000/svg">
<path d="M33 4.73762L41.8187 14.5514C41.994 14.7465 42.0467 15.0161 41.9569 15.2584C41.8298 15.6014 41.4576 15.7947 41.0943 15.7226L40.9956 15.6963L36 14.0116V19.3381C36 23.9045 33.6041 28.1361 29.6884 30.4855L29.3985 30.6595C27.2901 31.9245 26 34.2031 26 36.6619V44H20V36.6619C20 32.0955 22.3959 27.8639 26.3116 25.5145L26.6015 25.3405C28.7099 24.0755 30 21.7969 30 19.3381V14.0106L25.0044 15.6963C24.7866 15.7698 24.5478 15.7433 24.3552 15.6289L24.2631 15.5645C23.9759 15.3297 23.9196 14.9335 24.1151 14.6371L24.1813 14.5514L33 4.73762ZM20 9C20 19.4934 17.0899 28 13.5 28C9.95801 28 7.07772 19.7187 7.00155 9.41866L7 9H20Z" fill="#2A5DFF"/>
</svg>
