<svg width="48" height="48" viewBox="0 0 48 48" fill="none" xmlns="http://www.w3.org/2000/svg">
<path d="M15 4.73762L23.8187 14.5514C24.0894 14.8527 24.0528 15.3062 23.7369 15.5645C23.5323 15.7317 23.2497 15.782 22.9956 15.6963L17.999 14.0106L18 19.3381C18 21.7091 19.1996 23.9125 21.1758 25.2012L21.3985 25.3405L21.6884 25.5145C25.5062 27.8052 27.8793 31.8851 27.9955 36.3201L28 36.6619V44H22V36.6619C22 34.2909 20.8004 32.0875 18.8242 30.7988L18.6015 30.6595L18.3116 30.4855C14.4938 28.1948 12.1207 24.1149 12.0045 19.6799L12 19.3381L11.999 14.0116L7.00435 15.6963C6.61213 15.8286 6.18176 15.6325 6.04309 15.2584C5.95328 15.0161 6.00599 14.7465 6.18134 14.5514L15 4.73762ZM41 9L40.9985 9.41866C40.9223 19.7187 38.042 28 34.5 28C30.958 28 28.0777 19.7187 28.0015 9.41866L28 9H41Z" fill="#2A5DFF"/>
</svg>
