<svg width="48" height="48" viewBox="0 0 48 48" fill="none" xmlns="http://www.w3.org/2000/svg">
<path opacity="0.3" d="M32 41V13H26V41H32Z" fill="#2A5DFF"/>
<path d="M29.0519 5L40.7593 18.6593C41.1187 19.0786 41.0701 19.7099 40.6508 20.0694C40.3792 20.3021 40.0039 20.3721 39.6666 20.2529L32 17.542V21C32 25.3349 28.5522 28.8645 24.2492 28.9962L24 29H6V23H24C25.0544 23 25.9182 22.1841 25.9945 21.1493L26 21V17.578L18.4371 20.2529C17.9164 20.437 17.3451 20.1641 17.161 19.6434C17.0417 19.3062 17.1117 18.9309 17.3445 18.6593L29.0519 5Z" fill="#2A5DFF"/>
</svg>
