<svg width="48" height="48" viewBox="0 0 48 48" fill="none" xmlns="http://www.w3.org/2000/svg">
<path opacity="0.3" d="M41.2174 36.701L41.6 36.8041L42.3956 37.0103L40.8898 42.8183L40.0942 42.612C33.2616 40.8406 27.5532 36.4705 23.9998 30.5746C20.4467 36.4705 14.7384 40.8406 7.90576 42.612L7.11014 42.8183L5.60437 37.0103L6.39999 36.8041C13.3124 35.0119 18.8236 29.8013 21 23H27C29.1361 29.6753 34.4846 34.8184 41.2174 36.701Z" fill="#2A5DFF"/>
<path d="M23.9481 6L35.6555 19.6593C35.8883 19.9309 35.9583 20.3062 35.839 20.6434C35.6681 21.1269 35.1632 21.3967 34.6751 21.2854L34.5629 21.2529L27 18.578V42H21V18.541L13.3334 21.2529C13.0383 21.3572 12.7141 21.3167 12.4557 21.149L12.3492 21.0694C11.9622 20.7376 11.891 20.1742 12.165 19.7596L12.2407 19.6593L23.9481 6Z" fill="#2A5DFF"/>
</svg>
