<svg width="48" height="48" viewBox="0 0 48 48" fill="none" xmlns="http://www.w3.org/2000/svg">
<path opacity="0.3" d="M27 41V13H21V41H27Z" fill="#2A5DFF"/>
<path d="M24.0519 5L35.7592 18.6593C36.1186 19.0786 36.0701 19.7099 35.6507 20.0694C35.3791 20.3021 35.0039 20.3721 34.6666 20.2529L26.9997 17.541L27 23.9289C27 25.9496 26.2355 27.8915 24.8667 29.3679L24.6568 29.5858L11.1213 43.1213L6.87866 38.8787L20.4142 25.3431C20.7476 25.0097 20.9511 24.5708 20.9922 24.1048L21 23.9289L20.9997 17.578L13.4371 20.2529C12.9164 20.437 12.345 20.1641 12.1609 19.6434C12.0417 19.3062 12.1117 18.9309 12.3445 18.6593L24.0519 5Z" fill="#2A5DFF"/>
</svg>
