<svg width="48" height="48" viewBox="0 0 48 48" fill="none" xmlns="http://www.w3.org/2000/svg">
<path opacity="0.3" d="M21 41V13H27V41H21Z" fill="#2A5DFF"/>
<path d="M23.9481 5L35.6555 18.6593C35.8883 18.9309 35.9583 19.3062 35.839 19.6434C35.6681 20.1269 35.1632 20.3967 34.6751 20.2854L34.5629 20.2529L27 17.578V23.9289C27 24.4594 27.2107 24.9681 27.5858 25.3431L41.1213 38.8787L36.8787 43.1213L23.3431 29.5858C21.8429 28.0855 21 26.0507 21 23.9289V17.541L13.3334 20.2529C13.0383 20.3572 12.7141 20.3167 12.4557 20.149L12.3492 20.0694C11.9622 19.7376 11.891 19.1742 12.165 18.7596L12.2407 18.6593L23.9481 5Z" fill="#2A5DFF"/>
</svg>
