<svg width="48" height="48" viewBox="0 0 48 48" fill="none" xmlns="http://www.w3.org/2000/svg">
<path d="M23.9481 5L35.6555 18.6593C35.8883 18.9309 35.9583 19.3062 35.839 19.6434C35.6681 20.1269 35.1632 20.3967 34.6751 20.2854L34.5629 20.2529L26.9992 17.578L27 24.1522C27 28.8311 29.7181 33.0729 33.9447 35.0354L34.2287 35.1629L40.1928 37.7473L37.8072 43.2527L31.8431 40.6682C28.5785 39.2536 25.8852 36.9445 23.9993 34.1011C22.1148 36.9445 19.4215 39.2536 16.1569 40.6682L10.1928 43.2527L7.80717 37.7473L13.7713 35.1629C18.1598 33.2612 21 28.9351 21 24.1522L20.9992 17.541L13.3333 20.2529C13.0383 20.3572 12.7141 20.3167 12.4557 20.149L12.3492 20.0694C11.9622 19.7376 11.891 19.1742 12.165 18.7596L12.2407 18.6593L23.9481 5Z" fill="#2A5DFF"/>
</svg>
