<svg width="48" height="48" viewBox="0 0 48 48" fill="none" xmlns="http://www.w3.org/2000/svg">
<path opacity="0.3" d="M16 41V13H22V41H16Z" fill="#2A5DFF"/>
<path d="M18.9481 5L30.6555 18.6593C30.8883 18.9309 30.9583 19.3062 30.839 19.6434C30.6681 20.1269 30.1632 20.3967 29.6751 20.2854L29.5629 20.2529L22 17.578V21C22 22.1046 22.8954 23 24 23H42V29H24C19.5817 29 16 25.4183 16 21V17.541L8.33335 20.2529C8.03826 20.3572 7.71406 20.3167 7.45568 20.149L7.34925 20.0694C6.96217 19.7376 6.891 19.1742 7.16503 18.7596L7.24074 18.6593L18.9481 5Z" fill="#2A5DFF"/>
</svg>
