<svg width="56" height="56" viewBox="0 0 56 56" fill="none" xmlns="http://www.w3.org/2000/svg">
<path opacity="0.3" d="M21 37.3333C28.0877 37.3333 33.8333 31.5877 33.8333 24.5C33.8333 17.4124 28.0877 11.6667 21 11.6667C13.9123 11.6667 8.16667 17.4124 8.16667 24.5C8.16667 31.5877 13.9123 37.3333 21 37.3333ZM21 32.6667C16.4897 32.6667 12.8333 29.0103 12.8333 24.5C12.8333 19.9897 16.4897 16.3333 21 16.3333C25.5103 16.3333 29.1667 19.9897 29.1667 24.5C29.1667 29.0103 25.5103 32.6667 21 32.6667Z" fill="#2A5DFF"/>
<path d="M42.3796 16.5537L42.4504 16.4536C42.7286 16.1136 43.2095 16.0371 43.5756 16.256L43.6817 16.3305L53.6667 24.5L43.6817 32.6695C43.426 32.8788 43.0742 32.9261 42.7722 32.7919C42.3674 32.612 42.1666 32.1625 42.2871 31.7487L42.328 31.6369L44.4628 26.8333L33.6217 26.8333C32.6843 31.9369 28.7276 35.9841 23.672 37.0548L23.3333 37.1217V49H18.6667V35C18.6667 33.7699 19.6185 32.7621 20.8259 32.6731L21.2808 32.6619C25.5679 32.5171 29.0171 29.0679 29.1619 24.7808L29.1731 24.3259C29.2577 23.1789 30.1714 22.2625 31.3172 22.1737L31.5 22.1667L44.4628 22.1667L42.328 17.3631C42.2106 17.0989 42.2322 16.7965 42.3796 16.5537L42.4504 16.4536L42.3796 16.5537Z" fill="#2A5DFF"/>
</svg>
