<svg width="56" height="56" viewBox="0 0 56 56" fill="none" xmlns="http://www.w3.org/2000/svg">
<path opacity="0.3" d="M37.3333 37.3333C44.421 37.3333 50.1667 31.5877 50.1667 24.5C50.1667 17.4124 44.421 11.6667 37.3333 11.6667C30.2457 11.6667 24.5 17.4124 24.5 24.5C24.5 31.5877 30.2457 37.3333 37.3333 37.3333ZM37.3333 32.6667C32.823 32.6667 29.1667 29.0103 29.1667 24.5C29.1667 19.9897 32.823 16.3333 37.3333 16.3333C41.8437 16.3333 45.5 19.9897 45.5 24.5C45.5 29.0103 41.8437 32.6667 37.3333 32.6667Z" fill="#2A5DFF"/>
<path d="M36.9913 11.6711L37.3333 11.6667C44.421 11.6667 50.1667 17.4124 50.1667 24.5C50.1667 30.6765 45.8034 35.8338 39.991 37.0578L39.6667 37.1217V49H35V35C35 33.7699 35.9519 32.7621 37.1592 32.6731L37.6141 32.6619C41.9944 32.514 45.5 28.9164 45.5 24.5C45.5 19.9897 41.8437 16.3333 37.3333 16.3333C32.823 16.3333 29.1667 19.9897 29.1667 24.5C29.1667 25.7301 28.2148 26.7379 27.0075 26.8269L26.8333 26.8333H15.0372L17.172 31.6369C17.2894 31.9011 17.2678 32.2035 17.1204 32.4463L17.0496 32.5464C16.7714 32.8864 16.2905 32.9629 15.9244 32.7441L15.8183 32.6695L5.83334 24.5L15.8183 16.3305C16.074 16.1212 16.4258 16.0739 16.7278 16.2081C17.1326 16.388 17.3334 16.8375 17.2129 17.2513L17.172 17.3631L15.0372 22.1667H24.7116C25.7889 16.3017 30.8536 11.8317 36.9913 11.6711L37.3333 11.6667L36.9913 11.6711Z" fill="#2A5DFF"/>
</svg>
