<svg width="56" height="56" viewBox="0 0 56 56" fill="none" xmlns="http://www.w3.org/2000/svg">
<path opacity="0.3" d="M28 40.8334C20.9123 40.8334 15.1667 35.0877 15.1667 28C15.1667 20.9124 20.9123 15.1667 28 15.1667C35.0877 15.1667 40.8333 20.9124 40.8333 28C40.8333 35.0877 35.0877 40.8334 28 40.8334ZM28 36.1667C32.5103 36.1667 36.1667 32.5103 36.1667 28C36.1667 23.4897 32.5103 19.8334 28 19.8334C23.4897 19.8334 19.8333 23.4897 19.8333 28C19.8333 32.5103 23.4897 36.1667 28 36.1667Z" fill="#2A5DFF"/>
<path d="M47.7747 5.89197L46.491 18.7291C46.4429 19.21 46.0141 19.5608 45.5333 19.5127C45.2045 19.4798 44.9223 19.2646 44.8037 18.9562L43.0442 14.3818L38.0145 19.9733C39.8144 22.2158 40.8333 25.0267 40.8333 28C40.8333 34.2908 36.3069 39.5245 30.3333 40.6217V50.1667H25.6667V38.5C25.6667 37.2699 26.6185 36.2621 27.8259 36.1731L28 36.1667C32.5103 36.1667 36.1667 32.5103 36.1667 28C36.1667 25.5818 35.1127 23.3401 33.3111 21.796C32.3159 20.943 32.2183 19.4379 33.0951 18.4636L39.928 10.869L34.7105 8.86302C34.2595 8.68954 34.0345 8.18327 34.2079 7.73224C34.3265 7.42384 34.6088 7.20856 34.9375 7.17568L47.7747 5.89197Z" fill="#2A5DFF"/>
</svg>
