<svg width="56" height="56" viewBox="0 0 56 56" fill="none" xmlns="http://www.w3.org/2000/svg">
<path opacity="0.3" d="M28 40.8334C35.0877 40.8334 40.8333 35.0877 40.8333 28C40.8333 20.9124 35.0877 15.1667 28 15.1667C20.9123 15.1667 15.1667 20.9124 15.1667 28C15.1667 35.0877 20.9123 40.8334 28 40.8334ZM28 36.1667C23.4897 36.1667 19.8333 32.5103 19.8333 28C19.8333 23.4897 23.4897 19.8334 28 19.8334C32.5103 19.8334 36.1667 23.4897 36.1667 28C36.1667 32.5103 32.5103 36.1667 28 36.1667Z" fill="#2A5DFF"/>
<path d="M8.2253 5.89197L21.0625 7.17568C21.3912 7.20856 21.6735 7.42384 21.7921 7.73224C21.9511 8.14569 21.7753 8.60555 21.3975 8.81294L21.2895 8.86302L16.2158 10.813L21.5612 16.8965C23.3622 15.8501 25.4068 15.2501 27.5413 15.1748L28 15.1667C35.0877 15.1667 40.8333 20.9124 40.8333 28C40.8333 34.1765 36.47 39.3338 30.6577 40.5578L30.3333 40.6217V50.1667H25.6667V38.5C25.6667 37.2699 26.6185 36.2621 27.8259 36.1731L28.2808 36.1619C32.6611 36.014 36.1667 32.4164 36.1667 28C36.1667 23.4897 32.5103 19.8333 28 19.8333C26.0289 19.8333 24.1718 20.5311 22.7037 21.7833C21.7846 22.5674 20.4304 22.5147 19.5746 21.6926L19.4368 21.5484L13.011 14.2371L11.1963 18.9562C11.0926 19.226 10.8635 19.4246 10.5876 19.492L10.4667 19.5127C10.026 19.5568 9.62892 19.2657 9.52878 18.8465L9.50901 18.7291L8.2253 5.89197Z" fill="#2A5DFF"/>
</svg>
