<svg width="48" height="48" viewBox="0 0 48 48" fill="none" xmlns="http://www.w3.org/2000/svg">
<path d="M29.197 10.411C33.6151 10.4442 37.1702 14.0524 37.1379 18.4706L37 37L31.0002 36.9555L31.1376 18.4261C31.1458 17.3215 30.257 16.4195 29.1525 16.4113C28.6169 16.4073 28.1021 16.6183 27.7234 16.997L19.755 24.965L27.1252 28.485C27.4121 28.622 27.6145 28.886 27.6752 29.1934L27.6912 29.3106C27.7306 29.8219 27.3781 30.273 26.8867 30.3687L26.7709 30.3844L8.83395 31.7646L10.2142 13.8276C10.2416 13.471 10.4575 13.1562 10.7803 13.002C11.243 12.781 11.7908 12.9472 12.0573 13.3711L12.1136 13.4734L15.555 20.679L23.4808 12.7544C24.9956 11.2395 27.0547 10.3956 29.197 10.411Z" fill="#2A5DFF"/>
</svg>
