<svg width="48" height="48" viewBox="0 0 48 48" fill="none" xmlns="http://www.w3.org/2000/svg">
<path d="M18.803 10.411C20.8432 10.3963 22.8081 11.1611 24.2991 12.5426L24.5192 12.7544L32.4441 20.679L35.8864 13.4734C36.1244 12.975 36.7214 12.764 37.2197 13.002C37.5425 13.1562 37.7584 13.471 37.7858 13.8276L39.1661 31.7646L21.2291 30.3844C20.6784 30.342 20.2664 29.8613 20.3088 29.3106C20.3362 28.954 20.5521 28.6391 20.8748 28.485L28.2441 24.965L20.2766 16.997C19.9399 16.6604 19.4958 16.4563 19.0251 16.4179L18.8475 16.4113C17.7932 16.4191 16.9355 17.2414 16.8668 18.2768L16.8624 18.4261L16.9998 36.9555L11 37L10.8621 18.4706C10.8298 14.0524 14.3849 10.4442 18.803 10.411Z" fill="#2A5DFF"/>
</svg>
