<svg width="48" height="48" viewBox="0 0 48 48" fill="none" xmlns="http://www.w3.org/2000/svg">
<path d="M22 5.5C14.8203 5.5 9 11.3203 9 18.5V42H15V18.5C15 14.634 18.134 11.5 22 11.5C25.866 11.5 29 14.634 29 18.5V30.731L21.4371 28.0575C20.9164 27.8734 20.3451 28.1462 20.161 28.6669C20.0417 29.0042 20.1117 29.3794 20.3445 29.651L32.0519 43.3104L43.7593 29.651C44.1187 29.2317 44.0701 28.6004 43.6508 28.241C43.3792 28.0082 43.0039 27.9382 42.6666 28.0575L35 30.768V18.5C35 11.3203 29.1797 5.5 22 5.5Z" fill="#2A5DFF"/>
</svg>
