<svg width="48" height="48" viewBox="0 0 48 48" fill="none" xmlns="http://www.w3.org/2000/svg">
<path d="M26 5.5C33.1797 5.5 39 11.3203 39 18.5V42H33V18.5C33 14.634 29.866 11.5 26 11.5C22.134 11.5 19 14.634 19 18.5V30.731L26.5629 28.0575C27.0836 27.8734 27.6549 28.1462 27.839 28.6669C27.9583 29.0042 27.8883 29.3794 27.6555 29.651L15.9481 43.3104L4.24075 29.651C3.88133 29.2317 3.92991 28.6004 4.34925 28.241C4.62084 28.0082 4.9961 27.9382 5.33335 28.0575L13 30.768V18.5C13 11.3203 18.8203 5.5 26 5.5Z" fill="#2A5DFF"/>
</svg>
